<?xml version="1.0" encoding="utf-8"?>
<!-- Generator: Adobe Illustrator 26.3.1, SVG Export Plug-In . SVG Version: 6.00 Build 0)  -->
<svg version="1.1" xmlns="http://www.w3.org/2000/svg" xmlns:xlink="http://www.w3.org/1999/xlink" x="0px" y="0px"
	 viewBox="0 0 732.8 872.5" style="enable-background:new 0 0 732.8 872.5;" xml:space="preserve">
<style type="text/css">
	.st0{fill:#BC3219;}
	.st1{fill:#BA3219;}
</style>
<g id="Layer_2">
</g>
<g id="Layer_1">
	<g>
		<path class="st0" d="M720.4,598.7c-3.5-2.2-3.6-3.7-3.8-6.7c-1-11.2-7.6-22.3-20.9-23c-1.7,0-2.3-0.8-2.9-2
			c-5.8-11.5-19.1-15.2-29.1-7.7c-2.7,2-4.2,1.4-6.5-0.1c-8.1-5.3-16-5.2-22.7,2.4c-4.6,5.1-8.1,9.9-15.8,8.6
			c-1.1-0.2-2.4,0.9-3.6,1.5c-9.5,4.6-11.3,12.9-10.5,22.2c0.2,2.5-0.1,4.1-1.7,6.2c-7.1,9.4-3.8,22.3,6.2,26.5
			c2.1,0.8,5.5-0.5,6.3,2.7c0.7,2.6-0.4,5.2-1,7.8c-0.5,2.6-1.4,5.1-2.1,7.6c-0.7,2.4-2.2,3.4-4.7,3.4c-12.2,0-24.3,0.2-36.5,0.3
			c-0.6,0-1.3,0.4-1.5-0.5c-0.6-2.6,0.9-5.1,0.4-7.8c-0.3-1.4,2.1-1,3.3-1.3c6.4-1.8,11.1-5.8,12.7-12.1c1.2-4.7-2.7-7.7-6.1-10.4
			c-1.6-1.4-2.1-2.4,0.2-3.6c1-0.5,2-1.2,2.8-2c2.5-2.4,5.6-5.1,4.1-8.8c-1.8-4.3-5.2-0.9-8-0.4c-2.2,0.5-3.8-0.2-3-2.9
			c0.7-2.3,1.6-4.6,2.5-6.8c1.1-3,0.1-5.1-2.3-6.8c-2.5-1.8-4.8-1.2-7.3,0.4c-3.1,2-5.2,4.8-6.9,7.7c-2.4,4-3.9,4.8-7.1,0.8
			c-3.7-4.6-7.6-3.8-10.6,1.2c-2.1,3.5-1.8,7.3-1.9,11.1c0,1.3,0.8,3.6-1.5,3.5c-5.7-0.3-10.7,1.8-16,3.1c-1.7,0.4-3.4,0.3-2.6-2.3
			c3.6-11.1,5.5-22.7,8.2-34.1c0.4-1.7,0.9-2.2,2.6-1.9c6.4,1.2,12.5-0.5,18.3-2.8c11.2-4.4,22.7-18.7,14-31.7
			c-1.4-2.1-5.4-4-3.5-6.4c1.7-2.1,5.6-0.6,8.4,0.1c20,4.7,40.1,7.4,60.8,5.5c22-2,42.9-7.8,62.8-16.9c6.8-3.2,12.2-8.7,14.3-16.3
			c4.4-16.4,0.7-32.2-5.6-47.2c-6.9-16.3-18-29.9-29.2-43.4c-1.9-2.3-4.7-4.5-4.8-7.8c-0.1-3.6-1.7-6.3-3.9-8.8
			c-8.8-10.1-17.4-20.3-26.3-30.3c-15.8-17.6-29.7-36.8-44.7-55c-14.8-18-32.7-31.2-54.8-38.3c-23.8-7.7-48-13.7-72.4-19.2
			c-9.5-2.2-11.2-4.1-12-13.9c-0.1-1.2,0-2.3-0.1-3.5c-0.9-14.3,2.8-28.4,3.2-42.6c0-2.4,0.6-4.8,4.3-5.5c3.7-0.6,7.1-3.2,9.7-6.4
			c10.2-12.4,17.5-26.3,21.4-41.9c2.4-9.6-1.3-25.5-12.3-30c-1.8-0.8-1-1.9-1-3.2c0.1-9.6,1.6-19.1,0.8-28.7
			c-0.5-5.8-3.1-11.2-2.7-17.2c3.7,0.5,4.3,4.5,7.5,5.6c0-0.7,0.1-1.4,0-2c-0.2-0.8-0.6-1.5-0.9-2.3c-4.5-9.8-11.2-17.9-19.3-24.9
			c-1.3-1.1-1.8-2.5-1.5-3.4c0.6-1.5,2.2-0.4,3.3-0.2c4.6,0.8,9.2,1.8,14.3,2.8c-10.9-11-23.9-15.1-38.8-12.5
			c-1.1,0.2-2.6,1.1-3-0.4c-0.4-1.3,0.4-2.6,2-3.3c4-1.9,8-3.8,13-5.2c-1.3-0.6-1.8-1-2.4-1.2c-7.7-2.5-14.6,0.2-21.2,3.6
			c-2.9,1.5-4.3,1.6-6.7-1.3c-6-7.5-14.2-11.7-23.5-14c5.1,3.6,10.4,7,13.7,12.6c0.5,0.9,1.1,1.8,0.3,2.6c-0.7,0.7-1.5,0.2-2.2-0.4
			c-5.1-4.6-11.3-7.1-17.8-8.9C378.7,5.8,363,5.2,347,10.2c-11.9,3.7-23,11-37.4,7.4c2.9,3.4,4.9,5.8,7,8.1c0.9,1,2.2,1.8,1.8,3.3
			c-0.5,1.9-2.2,0.9-3.4,0.9c-9.1,0.4-17.8-1.5-27.1-4c1.5,8,6.5,13.1,11.5,18.1c0.9,1,3.3,0.9,2.5,3s-2.8,0.7-4.3,0.9
			c-0.7,0.1-1.6-0.2-2.4-0.3c-6.6-1.2-13.2-2.3-20.3-3.6c3.7,11.2,11.2,18.1,21.1,22.4c2.8,1.2,3.2,2.6,2.4,4.8
			c-5.2,14.9-3.1,30.9-6.2,46.1c-0.6,3.1,1,7.2-0.5,9.6c-1.7,2.6-6.2,2.5-9.4,3.5c-3.5,1.1-4.9,3-3.5,6.7c2.4,6.1,3.6,12.6,4.6,19.1
			c0.5,3.6,1.6,7.6,4.3,9.8c4.5,3.8,3.7,7.9,2.6,12.5c-0.7,2.7-1.8,5.5-1.2,8.3c1.7,7.8,2.9,15.9,5.6,23.4
			c5.9,16.6,14.4,32.3,19.4,49.3c0.4,1.6,1.6,3.3,0.6,4.6c-0.4,0.6-2.7,0-4.1-0.3c-12.6-2.3-25.2-4.9-38-6.3
			c-11.8-1.2-23.4-0.5-34.9,2.1c-14.4,3.2-28,9.2-41.5,15c-6.8,2.9-13.7,4.5-21,5.2c-10,1-20,2.3-30.1,2.9c-9.4,0.5-18.6,2.1-28,3.1
			c-2.7,0.3-4.3,0-4-3.5c0.7-9.6,1-19.2,2.5-28.7c2.3-14.6,8.7-27.8,12.9-41.8c3.3-11.1,8.5-20.3,16.7-28.9
			c16.6-17.2,21.7-38.5,16.6-62.1c-0.4-1.4-2.2-3.3-0.4-4.3c1.9-1,4.5-1.3,6.5,0.4c1.6,1.3,2.8,3,3.4,5.2c1.7,5.8,3.1,6.5,8.6,4.5
			c11.7-4.4,23.1-9.4,34.3-14.8c17.4-8.4,33.9-18.7,50.1-29.3c3.9-2.5,4-5.6,0.3-9.2c-7.9-7.6-15.8-15.1-23.4-22.9
			C229,38,216.9,25.6,205,12.9c-3.8-4.1-7.3-3-11.1-1c-7.1,3.7-14,7.6-20.9,11.5c-16.8,9.5-33.1,19.8-49.3,30.4
			c-4.2,2.8-4.5,6-0.6,8.6c10.6,7.2,19.3,16.6,28.5,25.4c0.9,0.9,2,1.7,1,3.3c-2.9,4.6-9,5.4-13.1,1.5c-1.4-1.2-2.5-2.7-4-3.8
			c-6.5-4.7-13.6-10.4-21.6-5.2c-6,3.9-12.1,7.1-18.2,10.5c-6.1,3.4-10.8,9.1-17.2,12.9c-7,4.1-10.5,13-18,17.3
			c-0.5,0.3-0.5,1.5-0.9,2.2c-3.2,6.1-1.2,12.3-0.5,18.5c0.4,2.6,0.2,4.3-2.9,5.7c-9.7,4.6-15.3,12.7-17,23.2
			c-0.9,6,2.3,10.9,7,14.5c4,3.1,8.6,3.3,13.1,1c2.9-1.5,5.6-3.3,8.5-4.9c1.5-0.8,3.7-2.2,3.6,1c-0.1,5.6-0.9,11.1-3.8,16.1
			c-6.1,10.4-11.7,21-18.1,31c-14.7,23-27.3,46.9-36.1,72.7c-5.6,16.5-10.7,33.1-13.1,50.4c-2,14.8,4.8,26.4,18.4,32
			c16.6,6.8,34.1,9.3,51.9,10c16,0.6,31.9-0.2,47.8-1.4c2.6-0.2,4.2,0.5,5.7,2.5c3.8,5,8.5,7.8,15.3,7c11.3-1.4,22.7-1.9,34-3.2
			c12.5-1.3,25.1-3,37.6-4.8c6.4-1,6.3-1.2,7.4,5.3c0.2,1.3,0.5,2.6,0.5,3.9c0.3,27.5-0.7,54.9,1,82.3c0.6,10.4,1.1,20.8,2,31.2
			c0.3,3.3-0.9,4.7-3.9,5.1c-8.6,1.1-15.9,4.5-22.3,10.5c-3.2,3.1-5.4,7.2-9.5,9.3c-1.8,0.9-4.1,3.5-5.7,2c-2-1.8-0.2-4.5,1-6.7
			c3.1-5.7,4.9-11.9,6-18.2c0.7-3.7-0.6-7.1-3.5-9.3c-3.1-2.3-6.3-0.9-9.2,0.9c-3.5,2.1-6.5,5-9,8.3c-0.9,1.2-1.3,3.2-3.2,2.2
			c-1.7-0.8-1-2.8-0.5-4c1.4-3.8,2.8-7.6,5.4-11c3.5-4.6,7.3-8.9,10.2-14c2.9-5.1,2.5-11-1.2-14.5c-2.6-2.5-7.1-1.8-12.1,2
			c-1,0.8-1.9,1.8-2.9,2.7c-1.1,0.9-2,2.7-3.7,1.8c-1.7-0.9-0.7-2.5-0.4-3.9c1.9-7.5-0.1-14.5-3.8-20.9c-2.4-4.2-5.1-4.3-8.9-1.1
			c-4.5,3.8-7.2,8.9-9.4,14.3c-0.6,1.7-0.6,4.2-3.1,3.5c-2.1-0.5-1.1-2.8-1.1-4.3c0.1-8.5-1-16.8-5.4-24.3c-5.3-9.3-12-9.4-17.2,0
			c-1.8,3.3-2.5,2.4-4.1,0c-4.5-6.9-10.6-11.9-18.5-14.3c-6-1.9-12-0.8-16.1,3.9c-3.8,4.4-1.8,9.7,0.7,14.4c2.2,4.1,5,7.8,8.8,10.6
			c1.8,1.3,3.4,3,2.5,4.7c-0.6,1.2-3.1,0.2-4.8-0.2c-2.4-0.5-4.9-0.9-7.3-1c-6.8-0.2-13.3,8.5-10.9,14.9
			c3.5,9.5,11.5,14.6,19.8,19.1c3.7,2,7.7,3.5,11.6,5.2c1.4,0.6,2.1,1.5,1.9,3.1c-0.3,2-1.9,1.6-3.1,1.6c-1.7,0-3.3-0.1-5,0
			c-6.6,0.4-12.8,4.7-14.2,9.7c-1.1,3.9,2.5,9.7,8.3,13.3c4.7,2.9,10,4,15.2,5.6c1,0.3,3-0.2,2.8,2c-0.1,2.4-1.9,1.1-3,1.3
			c-4.7,0.8-9.6,2.2-10.8,7.2c-1.2,4.8,1.7,8.7,5.7,11.7c10.1,7.6,21.3,8.9,33.3,5.7c1.8-0.5,3.7-1,5.8,0.5c-1.8,1.9-4.2,1.4-6,2.4
			c-3.7,2-8.3,3.5-7.9,8.7c0.3,4.8,3.9,7,8.6,8.1c4.8,1.2,9.6,0.5,14.4,0.8c8.3,0.4,13.1,6.8,10.9,14.6c-1.5,5.4-2.9,10.9-2.5,16.5
			c0.6,8.7,2.3,17.3,6.1,25.3c1.4,2.9-0.1,4.2-2.9,3.3c-3-1-6-1.1-8.9-0.8c-3.3,0.3-4.6-1-5.8-4.1c-4.9-12.2-13.3-20.9-26.6-24
			c-3.6-0.8-3.9-2.5-2-5.5c1.6-2.5,4.9-6,3.1-7.8c-2.5-2.5-5.9,1-8.9,2.1c-4.5,1.7-8.1,5.4-13.2,6.4c-0.7-5.6,0.9-10.6,1.7-15.6
			c0.4-2.2,1.6-4.9,0.7-6.6c-1.1-2.2-4.3-0.6-6.5-1c-0.6-0.1-1.3-0.3-1.9-0.5c-2.4-0.6-3.3,0.4-3.3,2.8c0.1,5.2,0,10.3,0,15.5
			c0,5.1-0.4,5.3-4.8,3c-6.3-3.3-13-5.2-20.9-6.8c2.5,3.6,4.4,6.2,6.6,8.9c1.3,2,1.1,3.6-1.9,4c-3.6,0.6-6.8,2.4-10,4.1
			c-21,11-32.4,37.9-18.8,61.1c1.7,2.8,1.3,4.6-1,6.9c-6.9,7-13.6,14.1-20.2,21.4c-1.6,1.7-4.2,3.4-4,5.9c0.8,11,0.4,22,0.4,33
			c0,3.7,1.2,4.9,4.9,4.9c21.2-0.1,42.3-0.1,63.5-0.1c18.3,0,36.7,0,55,0c3.9,0,441.4-0.5,450.3-0.2c26.7,0.9,53.5,0.3,80.3,0.5
			c17.9,0.1,35.9-0.2,53.8-0.1c4.4,0,4.9-2,4.6-4.8c-0.9-10.1-0.3-20.3-0.3-30.4c0-4-1.1-6.9-4-9.6c-11.9-11.2-22.6-23.4-33.9-35.2
			c-1.5-1.6-1.7-2.9-0.6-4.2c2.2-2.6,9.5-3.6,12.7-2c8.9,4.5,17.2,4.2,25.3-2.1c6.5-5,11.8-18.7,7.8-26.2c-1.3-2.4-0.6-4.1,2-6
			C737.1,625.9,735.7,608.1,720.4,598.7z M239.6,67.6c4.3,0.2,7.8,3.7,7.7,7.7c-0.1,4-3.5,7.4-7.1,7.1c-3.7-0.2-7.5-3.9-7.3-7.2
			C233.2,70.5,235.8,67.5,239.6,67.6z M651.3,590.8c6.3-6.2,6.5-6.3,13.1-6.3c3.9-1.1,6.1,2.4,8.9,4.4c1,0.7,1.1,2.5,0.2,3.5
			c-0.5,0.5-1.6-0.1-2.4-0.9c-4.6-4.6-13.4-4.1-18.1,1c-0.8,0.9-1.8,1.9-2.8,0.7C649.4,592.3,650.6,591.5,651.3,590.8z M524.7,623.1
			c7.3-5,22.4-6.1,28.3-0.2c5.6,5.6,9.1,12.8,7.9,21.3c-0.7,4.8-2.1,9.2-5.2,13.1c-0.5,0.6-0.4,1.5-1.5,1.5c-1.3-0.1-0.9-1.1-1-1.8
			c-1.3-8.5-4-16.2-11-22.5c-0.2,2.6,0.2,4.6,1.1,6.7c3.2,7.3,4.5,15,4.4,23c0,1.2,0.1,2-1.2,2.8c-5.1,3.4-10,7.1-15.2,10.8
			c-2.4-3.6-1.3-7.8-2.7-11.4c-1.5-4-5.4-5.1-7.9-8.3c-1,2.1-0.3,3.7,0.7,5.4c2.3,3.9,2.9,8.4,3.7,12.8c0.7,3.9-0.3,6.8-4.8,8.3
			c-4.8,1.6-9.6,3.4-13.8,6.4c-2,1.4-3.5,1.8-5.1-1.4c-1.9-3.6-2.9-8-7.2-10.9c1.1,4.9,2.4,9.3,2,13.8c-0.1,1.3,0.2,3.1-1.6,3.2
			c-8.6,0.4-16.3,5.2-25.2,4.3c-3.8-0.4-3.6-1.1-2.4-4c4-9.4,11.2-16.8,16.7-25.3c2.4-3.7,7.3-1.3,10.7-1c4.2,0.3,8.3,3,12.5,4.6
			c-1-6-9.1-11.3-17.8-11.4c5.6-6.6,10.4-13.6,17.1-18.3c5.6-3.9,12.6-2.4,18.9-0.1c1.5,0.6,3,1.2,4.6,1.8
			c0.1-5.7-7.7-11.6-14.2-10.9c-1.4,0.2-3.4,1.2-4.1-0.2c-0.9-2,1.4-2.5,2.7-3.4C518,629.4,520.8,625.8,524.7,623.1z M659.3,407.8
			c8.3,11,16.4,22.2,24.6,33.2c13.5,18.3,20.8,38.3,16.8,61.5c-1.4,8.2-7.5,12.3-14,14.7c-8.9,3.2-17.4,7.5-26.9,9.4
			c-6.1,1.2-12.2,2.9-18.4,3.5c-20.4,2.2-40.7,1.3-60.8-3.1c-7.5-1.6-15.1-2.2-22.7-0.7c-2.7,0.5-4.5,0.6-5.2-3.1
			c-0.8-3.8-2.6-7.5-5.7-11.8c-2.2,8.2-3.5,15.5-5.7,22.7c-3.1,10-8,18.4-17.6,23.5c-0.8,0.4-1.5,1.4-2.4,0.9
			c-1.3-0.7-0.1-1.7,0.1-2.5c0.6-3.5-2.7-5.7-3.4-9c-1.2,7.5-2.3,15-3.5,22.6c-1.2,7.9-5.4,13.3-12.5,17c-3.3,1.4-5.9,0.2-9.2,1.9
			c4.5-15.2,7.6-29.2,4.8-43.7c-3.5,8-4.2,16.6-5.3,25c-1,7.6-3.2,14.3-8.3,20.2c-4.2,4.8-10,4.3-15.6,5.7c0.2-4,2.4-7.1,3.5-10.5
			c3.7-12,4.7-24.2,4.4-36.6c0-1.8-0.1-3.8-3-4.3c-1.1,8.2-2.1,16.3-3.2,24.4c-0.9,6.7-2.5,13.2-4.5,19.7
			c-3.5,10.7-7.9,13.3-19.7,11.8c4.6-14.6,5.6-29.7,7.1-44.7c0.4-4.2,0.3-8.3-0.1-12.5c-0.1-1.7-0.8-3.5-2.9-3.3
			c-2.3,0.1-1.6,2.3-1.7,3.5c-1.8,17.1-3.4,34.3-5.2,51.4c-0.4,3.7-1.3,7.3-4.2,10.4c-3.3,3.6-7.1,3.8-11.1,2.9
			c-4.3-0.9-6.3-4.3-7.5-8.5c-2.3-8.2-0.2-16.2,0.6-24.3c1.7-17.8,4.2-35.6,6.5-53.4c0.4-2.9,1-5.8,1.6-8.7c0.5-2.2,2-3.4,4-4
			c9.8-3.1,18.9-8.1,28.2-12.3c16.2-7.3,31.7-15.9,48.5-22c2.3-0.8,4.5-0.8,6.8-1c13.8-1.3,27.9-1.5,41.4-4.4
			c10.6-2.3,20.6-7.6,29.7-14.2c11.4-8.4,24-14.3,38.3-16.4c12.5-1.9,24.8-0.9,37,2c0.8,0.2,1.8,0.4,2.2-0.5s-0.3-1.6-1-2
			c-11.8-7-24.2-11.1-38.3-8.7c-8.4,1.4-16.3,3.8-24.3,6.4c-4.5,1.5-7.6,5-11.3,7.6c-3.5,2.5-7.5,3.9-11.2,5.7
			c-3.5,1.7-2.7-1.7-2.4-3.3c0.9-5.5,4.2-9.7,7.3-14c6.8-9.5,15.9-16.6,26.1-21.8c12.4-6.3,25.6-10.7,39.9-9.1
			C654.3,401.5,656.9,404.7,659.3,407.8z M545.2,462.3c1-5.2,2.1-10.1,3.1-15c3.5,3.2,6.9,6,10.1,9.2c1.6,1.6,0.3,2.9-1.3,3.1
			C553.2,460.1,549.9,462.7,545.2,462.3z M481.6,366.1c1.9-22.9,4.7-45.7,10-68.1c1.8-7.8,3.9-15.5,5.6-23.4
			c0.5-2.6,1.4-3.5,3.9-2.7c20.5,6.4,41.8,10.4,60.6,21.6c9.7,5.8,17.4,13.7,24.5,22.1c16.7,19.6,31.5,40.7,48.5,60
			c4,4.5,8.1,8.8,12.2,13.1c0.8,0.8,1.8,1.7,1.5,3c-0.5,1.7-1.9,0.9-2.9,0.9c-21.1,0.4-39.2,8.6-55.4,21.7
			c-11.3,9.1-19.8,20.2-22.7,34.8c-0.6,3-2.8,1.8-4,0.8c-2-1.5-3.6-3.4-5.4-5.2c-8.3-8.3-15.5-17.5-23.2-26.4
			c-7.5-8.7-9.8-19.3-11.2-30.2c-1.4-10.7-1.4-21.5-1.1-32.3c0.7-1.6-0.3-3.4,0-4.8c-0.4,1-1,2.1-2.1,2.9
			c-3.5,12.5-3.8,25.4-3.3,38.3c0.2,4.2,0.6,8.6,2.5,12c3.9,7.1,2.7,14.1,1.3,21.2c-2.3,11.7-3.9,23.4-5.7,35.1
			c-0.2,1.3,0,2.7-1.7,3.1c-1.8,0.4-2.1-1.2-2.8-2.2c-14.5-22.6-23.6-47.2-26.3-74c-0.3-2.6,0-5.3-0.1-8c0-1,0.1-2.7-0.2-2.9
			C478,374.3,481.3,369.4,481.6,366.1z M474.9,118.1c5.1,0.1,9.7,2,11.2,9.8c1.6,8.5-0.1,16.5-3,24.4c-4.2,11.2-10,21.4-19,29.5
			c-2.5,2.2-5.2,4.1-8.8,2.7c-2-0.8-3.3-1-4.1,2c-1.8,6.8-1.5,13.8-2.3,20.6c-1.3,10.8-3.4,21.6-3.3,32.6c0,6,0.5,12,2.2,17.7
			c2.3,8-0.1,15.1-2.9,22c-5.8,14.5-15.6,25.8-28.7,34.4c-11.6,7.3-24.1,10.7-37.5,11.1c-13.2-0.5-25.3-3.1-35.1-12.9
			c-5.9-5.9-7-13.1-7.3-20.8c-0.1-2.6,1.3-2.6,3.2-1.6c23.2,11.3,43.1,2.8,61.9-10.6c11.4-8.1,20.8-18.6,28.2-30.4
			c7.1-11.4,10.3-24.5,12-37.8c2.2-17.4,4-34.9,5.1-52.4c0.6-9,2.1-18.8,7.3-26.2C458.8,125.3,464.5,117.8,474.9,118.1z M449,46.1
			c0.5-0.2,1.5,0,1.8,0.4c4.5,5,9,10.2,8.8,16.6c0.5,1.8,0.4,2.4-0.3,2.7c-1,0.3-1.7-0.2-2-1c-2.1-5.9-5.9-11-8.5-16.6
			C448.5,47.5,448,46.6,449,46.1z M438,62.4c1.8-1.4,4.1,2.7,5.5,4.4c3.1,3.7,7.4,7.1,7.5,13.3c-5.2-2.3-8.3-5.9-10.5-10.6
			c-0.1-0.3-0.3-0.6-0.3-0.9C440,66.2,435.3,64.4,438,62.4z M432.3,137.3c2.3,22.8,2.8,45.3-7,66.8c-0.7,1.5-1,3.6-3.9,3.6
			c0.4-4.5-1.3-8.5-3.2-13.2c-1.6,7.8-2.4,15-5.6,21.5c-1.8-23.4-12.3-24-32.6-26.9c-1,1.7,1.6,2.7,0.8,4.4
			c-2.1-1.2-3.7,1.3-6.5,0.4c-4.4-1.5-7.2-3.2-9.1-7.4c-1.6-3.8-6.3-4.7-11.4-3c1.4,0.5,2.9,1.2,4.4,1.7c1.8,0.6,2.6,1.8,2.7,3.7
			c0.1,1.9-0.8,3.1-2.4,3.9c-8.1,4.5-16.8,7.4-26.2,7.9c-5.5,0.3-9-3.7-8.5-9.6c0.8-8.8,3.5-17.2,6.3-25.5
			c2.2-6.6,1.9-13.7,5.1-20.1c2-4,5.4-3.2,8.2-3.3c2.9-0.2,6.5-0.1,7.5,4.1c0.6,2.9,1.2,5.8,1.8,8.8c3.4,17.7,13.3,22.1,30,21.9
			c4.1-0.1,8.2-0.9,12.2-2.1c7.3-2.1,12-6.5,12.5-14.4c5.5-0.5,9.8,2.2,14.4,4.6c-2.5-5.3-7-7.9-12.7-10.5
			c5.6-1.8,10.4-1.4,14.8-4.3c-4.4-0.9-8.2-1.6-12-2.5c-1.3-0.3-4.1,0.7-3.5-2.1c0.3-1.6-0.9-3.5,3-4.8c5.2-1.8,10.5-4.4,15.8-6.4
			C430.3,133.3,431.9,133.9,432.3,137.3z M388.8,206.1c-2.9,9.1-8.6,15.7-17.1,19.9c-9.9,4.9-20,8.3-30.8,3.1c-4.3-2-6.8-6.1-10-9.5
			c-0.7-0.7-1.3-1.5-1.8-2.4c-0.8-1.4-4.3-1.8-2.6-3.9c1.4-1.8,3,1,4.6,1.6c11.3,4.5,22.8,3.7,34.3,1.3
			C373.8,214.6,381.5,211,388.8,206.1z M300.4,143.8c-2.2-3.3-1.2-5.9,2.9-7c8.1-2.2,15.6,0.4,23.2,2.5c1.6,0.5,1.9,2.6,1.8,3.7
			c-0.5,5.7,0.2,11.5-1.7,17.2c-3.5,10.6-12.1,13.1-21.3,11.9c-4.2-0.5-6.1-4.3-6-11c0-2.8,0.1-5.6,1.5-8.2
			C302.3,149.9,302.5,146.9,300.4,143.8z M365.7,136.1c5.3-1.4,10.8-1.2,17.1-1.1c3.8-0.2,8.5,0.1,13.1,0.8c5.2,0.7,8.1,2.6,8,9.3
			c-0.1,6.9,0,14-4.4,19.9c-5.2,7.1-13.3,5.5-20.5,5.7c-2.5,0.1-5.2-0.9-7.7-1.6c-7.9-2.1-11.7-7.8-13.3-15.3
			c-0.3-1.5-0.4-3-0.7-4.4C355.8,141.1,357.6,138,365.7,136.1z M362.9,25c0.8-2,2.4-0.7,3.4-0.8c10.2,0.4,20.1,1.3,29.6,4.1
			c1.9,0.6,5.4-1.8,5.4,1.3c0,2.6-3.6,1-5.5,1.3c-11,1.6-21.3-2.4-31.9-4.5C363.4,26.3,362.7,25.3,362.9,25z M386.1,44.6
			c-8.8,6-39.6,0.2-46.1-6.9C355.5,39.8,369.9,44.4,386.1,44.6z M342.8,70c-11.4,1.1-20.6-0.6-28.5-7.8C323.5,64.1,333,65,342.8,70z
			 M298.3,121.7c2.9-14.9,3.2-30,5-45c0.3-2.2,0.5-2.3,2.4-1c14.5,10.7,43.3,13.4,61.3-0.5c8-6.2,17.9-6.5,26.7-10.1
			c8.5-3.4,17-7,23-14.5c0.7-0.9,1.3-1.2,1.9-0.6c0.8,0.7,0.4,1.7-0.1,2.7c-2.5,5.4-3.9,11.1-5.2,17c-4,18.4-0.6,35.1,10.6,50.2
			c1.5,2.1,2.7,4.5,4,6.7c0.1,0.3,0,0.5-0.1,0.9c-6.2,0.2-12.3,1.2-18.1,3.5c-1.2,0.5-2.4,0.3-3.3-0.4c-7-5.6-15.4-6.4-23.8-6.4
			c-5,0-9.9,1-14.8,1.4c-6.7,0.6-11.9,3.5-15.3,9.4c-0.7,1.3-1.7,2-3.2,1.6c-5.5-1.2-11-1.5-16.3,0.6c-0.8,0.3-1.3,0.2-1.7-0.9
			c-3.1-8.3-10.5-9.4-17.9-10.2c-3.9-0.4-7.9-0.5-11.9-0.4C298.2,125.8,297.9,124.2,298.3,121.7z M294.4,161.7
			c0.1,0.6,0.5,1.8-0.7,2c-0.5,0.1-1.3-0.2-1.7-0.6c-3.4-2.9-6.4-19.1-4.5-23.4c0.6-1.4,1.1-2.9,3.1-2.5c1.8,0.4,3.6,0.6,3.8,3
			c0.1,2.2,0.5,4.3,0.9,7C293.4,151.6,293.7,156.7,294.4,161.7z M304.6,209.6c0.1,1.1,1.6,2.6-0.5,3.2c-1.7,0.5-1.5-1.5-1.9-2.3
			c-3.3-8.4-7.3-16.7-7.2-26c0-7.2,2.9-9.6,9.8-8.1c6.1,1.3,12,0.8,18.1-1.7c-0.2,7.5-4.1,11.8-9.5,15.5
			C306.7,194.8,304.1,201.5,304.6,209.6z M313.9,213.5c-0.3-1.1-1.3-2.4-0.1-3.2c1.5-0.9,2.4,0.5,3.2,1.5c4.1,5.1,8.5,10,12.2,15.3
			c7,10,16.9,12.9,28.1,11c17.3-3,30.6-11.7,37.5-28.7c0.5-1.4,1.6-2.8,2.4-4.1c0.1-0.2,0.6-0.2,0.9-0.3c6,18.2-3.4,47.3-30.5,53.7
			c1.6-4.6,6.2-7.2,7.5-11.8c0.8-1.4,1.4-2.7-1-2.9c-11.7,5.9-23.7,6-35.9,1.9c-2.1-0.7-4.2-1.7-6.5-2.7c0.6,3.5,1.2,6.7,1.6,10
			c0.1,0.9,0.8,2.1-0.5,2.5c-1.2,0.4-1.5-0.9-2.2-1.5c-4.5-4.2-6.5-9.8-8.5-15.3C319,230.5,316.6,222,313.9,213.5z M319.2,281.1
			c0.7-1.9,1.8-3.2,3.3-4.3c1.1,3,5.7,3.3,5.5,7.4c-0.8,12,0.3,23.8,8.5,33.2c5.7,6.6,13.4,10.8,21.9,13.2c21.6,6,41.5,3.1,60.8-9
			c21.3-13.4,33.8-32.1,38.7-56.4c0-0.7-0.3-1.4-0.4-2.4c2.9,0.8,5.5,1.6,8.2,2.3c1.7,0.4,1.4,1.3,1,2.6
			c-6.7,20.1-11.8,40.6-15.7,61.5c-2.3,12.7-4.7,25.4-5.4,38.4c-0.2,3-1,4.4-4.3,4.5c-25.9,1-51.8,1.9-77.7,0.6
			c-24-1.3-47.8-4.2-71.5-8.4c-2.9-0.5-1.5-1.7-1.3-2.8c4-15.6,8.9-31,14.6-46.1C309.8,303.9,314.7,292.6,319.2,281.1z M364.2,690.5
			c3.2,1.7,8.9,2.4,8.1,6.3c-0.6,2.8-6.8,3.5-10.2,2.7c-8.2-1.8-16.5-0.5-24.6-1.1c-9.6-0.8-16.6-6.7-22.1-14.4
			c-2.2-3.1-4.5-6.2-6.4-9.5c-0.8-1.5-2.8-4.2,2-4.1c10.6,0.2,19.7-5,28.7-9.9c4-2.2,7.5-2.4,11.9-0.2c5.1,2.6,10.4,5.5,16.3,5.8
			c3.3,0.2,2.2,1.6,1.6,2.9c-2.5,5.3-10,8.2-16.2,6.6c-3.3-0.8-6.2-3.1-10-3c8.5,9.2,23.8,13.6,33.2-3.2c4-7.1,4.2-7,11.3-3
			c6.4,3.6,12.9,6.7,20,8.5c1.7,0.4,3.8,0.9,1.3,2.9c-8.3,6.4-16.3,13.5-27.7,13.5c-5.8,0-11.6-1.9-17.5-1.1
			C364,690.3,364.1,690.4,364.2,690.5z M395.5,655.8c-3.1,1.3-6,2.1-9.7-0.1c-4.1-2.5-8.8-3.6-13.9-0.2c-5.3,3.6-11.3,0.9-16-1.7
			c-7.6-4.2-14-4.8-21.2,0.6c-9.5,7.1-21.2,7.6-32.3,10c-1,0.2-2.7-0.6-2.3,1.4c0.8,4.5-2.5,4.8-5.3,5.5c-7.6,2.1-15.2,4.3-23.1,3.7
			c-2,0-4,0-6,0c-0.7,0-1.5,0-1.4-0.8c0.1-0.7-0.3-1.4,0.6-2.1c7.2-5.6,13.2-12.6,19.4-19.2c12.8-13.5,27.3-24.7,42.6-35.1
			c10-6.8,20.8-12.2,31.1-18.3c12.1-7.2,25-12.6,36.9-20.1c2.2-1.4,5.6-2.9,6.8,2.7c2.8,13.8,6.4,27.4,9.7,41.1c0.5,2,0.2,3-1.8,4.2
			c-9.3,5.8-19.5,9.9-29.1,15c-1.7,0.9-4.1,1.5-3.2,4.1c0.8,2.4,3,2.7,5.3,2.4c4.4-0.5,8.4-2.6,12-4.6c5.4-3,11.4-5,16.4-8.7
			c2.5-1.9,4.2-1.4,4.3,2c0,0.2,0.1,0.3,0.1,0.5c0.3,2.7,3.8,5.1,2.2,7.4c-1.2,1.9-4.5,2.3-6.9,3.4
			C405.7,651.2,400.7,653.6,395.5,655.8z M184.5,656.3c-6-8.7-9.4-18.3-11.7-28.5c-3.5,14,0.5,31.4,10.5,42.4c1,1.1,2.8,3,1.5,4.1
			c-1.7,1.4-2.4-1.5-3.7-2.2c-4.8-2.7-8.4-6.8-11.5-11.2c-11.4-16.3-8.3-42,2.1-54.4c10.3-12.2,23-19.1,38.2-22.4
			c3.9-0.8,4.4,0.6,4.3,4c-0.1,5.4-3.5,9.3-6.5,12.8c-8.7,10.3-16.5,20.9-20.6,34C184.9,641.8,184.1,648.8,184.5,656.3z
			 M195.8,628.6c1.5-3.1,3.3-6,4.8-9.1c0.4-0.9,0.4-2.2,1.8-1.7c1.4,0.5,0.6,1.6,0.4,2.5c-2.2,8.6-3.2,17.2-2.1,26
			c1.8,14.2,7.6,26.1,19.3,34.9c1.7,1.3,5.9-0.1,5.3,4.2c-13.4-2.4-25.5-7.9-31.4-20.4C188.3,653.2,189.9,640.5,195.8,628.6z
			 M220.5,648.9c-12.3-12.2-12.5-36.8-1.7-48c2.9-3,3-5,2.7-8.5c-1.3-16,7-26.2,23.8-29.4c4.7-0.9,7.8-1.9,10-6.8
			c3-6.9,9.8-10,16.8-10.9c9.2-1.2,18.4-1,26.9,4.1c6.3,3.8,10.8,9.1,14.6,15.1c2.4,3.8,5.3,6.7,9.4,9c8.4,4.8,12.2,13.2,14.9,21.9
			c1.1,3.6-4,9-7.9,9.4c-2.1,0.2-1.1-1.2-1.4-2.2c-2.3-8.5-4.8-16.8-13.3-21.5c-2.1,6.4,3.6,9.9,5.2,14.8c1.4,4.3,2.3,8.5,3,12.9
			c0.3,1.7-7.8,7.6-9.3,6.9c-1-0.4-0.8-1.4-0.9-2.1c-1.1-7.9-3.6-15.2-8.9-21.3c-5-5.7-10.4-10.8-17.9-13
			c-7.4-2.1-16.8,2.8-19.6,10.2c-0.8,2.2-1.7,4-4.1,5.1c-10.7,4.9-14.8,12.6-12.6,24c0.7,3.5,0.4,6.8-0.1,10.3
			c-1.4,9.5,1.6,22.4,15.3,26.4c0.9,0.3,1.9-0.9,2.6,0.2c-0.6,5-5.9,6.5-7.9,10.8c-0.9,1.8-4.2-0.5-5.9-2c-1.8-1.6-3.8-3.6-4.4-5.8
			c-2.5-8.6-9.6-13.4-15-19.7c-5.1-5.9-8-17.1-4.4-21.6c1.8-2.2,2.9-4.8,5.8-1c1.6,2,4.2,3.3,7.4,5.8c-5.6-8.4-6.3-16.5-4.8-25
			c1.7-9.7,11.8-17.7,19.6-18.6c1.5-0.2,2.4-0.2,3-2c6.4-16.5,25.1-17.2,36.3-6.7c2.6,2.2,5.2,4.2,8.3,6.8
			c1.4-9.2-5.2-12.5-10.3-16.2c-8-5.7-17-6-25.9-2.4c-5.1,2.1-8.6,6.3-9.8,11.9c-0.5,2.6-1.7,3.4-4.1,3.6c-17.2,1-25,19-24.2,32.2
			c0.1,1.5,1.1,3.2-0.5,4.1c-10.5,5.5-8.4,14.6-6.7,23.4c1.3,6.5,5.2,11.7,11,15.1c3.1,1.8,4.7,4,5.9,7.5
			c1.8,5.6,4.6,10.8,10.2,13.7c1.2,0.6,3.8,0.2,3.3,2.1c-0.5,1.8-2.5,3.7-4.5,4c-7,1.3-16-3.7-18.1-10.5
			C230.2,658.1,225.2,653.6,220.5,648.9z M285.8,521.5c-20.7-9.3-34.1-25.7-44.3-45.3C259,488.6,273.9,503.6,285.8,521.5z
			 M276,431.2c19.6,29.4,29.5,62.5,35.4,97C294.7,497.7,282,465.7,276,431.2z M341,445.6c0.5,20.8,0.8,41.1-4.2,61.2
			c-1.5,6.1-2.6,12.2-4,18.3c-0.2,0.9-0.3,2.2-1.6,2c-1-0.2-0.9-1.2-0.9-2c-0.8-24.9,1.2-49.5,8.2-73.4
			C339.1,449.7,337.6,447,341,445.6z M288.8,605.1c-5.1-2.2-8.6-0.1-11.3,3.1c-8.9,10.9-6.6,23.4,2,33.2c1.5,1.7,2.7,3-0.5,4.2
			c-1.3,0.5-2.5,1.8-3.2,3.1c-2.3,4-5,3.9-8.9,2.1c-6.5-3.2-11.9-13.3-10.4-20.6c2.2,1.4,4.3,2.8,6.8,4.4c-1.5-4.9-5-8.4-6-13.1
			c-1.5-7.2-1.9-14.1,4.2-19.7c0.2-0.2,0.5-0.7,0.6-0.7c6.5,0.3,7.3-5.8,10.5-9.3c6.5-7,14.8-5.7,20.5-2c10,6.3,14.6,15.9,16.6,27.2
			c0.4,2.4-1.3,3.2-2.4,4.5c-0.7,0.8-2.2,0.9-2.9,1.8c-4,4.9-4,1.5-4.9-2C297.9,614.7,296.2,608.3,288.8,605.1z M295.3,630.4
			c-2.8,2.7-5.5,5.3-8.1,8.1c-1.3,1.4-2.3,1.7-3.7,0.2c-4.1-4.1-6.6-18-4.5-23.2c1.4-3.4,3.9-4.5,7.4-4.7c3.5,0.2,6.9,1,7.4,5.6
			c0.2,2.2,1.4,4.2,2.6,5.8C298.8,625.5,297.8,627.9,295.3,630.4z M256.5,683.9c1.8-2,4.3-1.9,6.5-1.6c12.3,2,24.1-0.5,35.8-3.7
			c1.8-0.5,4.5-1.4,4.5,0.9c0,3.2,3.4,7.4-1.3,9.7c-5.5,2.7-11.4,4.3-17.6,4.8c-11.4,1-22.7,1.6-34.1,0.5c-0.7-0.1-1.3-0.4-2.2-0.6
			C251.1,690.4,253.7,687.1,256.5,683.9z M371.1,502.6c-5.9,15.5-15.4,28.9-25.3,42c-1,1.3-0.2,4.8-2.7,3.8s0-3.5,0.5-5.1
			c3-11.1,8-21.3,13.1-31.5c6.3-12.5,15.1-23.5,21.1-36.1c0.6-1.3,1.4-2.2,3.7-1.9C378,483.5,374.7,493.1,371.1,502.6z M387.9,531.1
			c-3,7.3-8.8,12.3-13.8,17.8c-5.2,5.7-11.6,9.8-18,13.9c-0.8,0.5-1.7,1.4-2.5,0.3c-0.4-0.7-0.4-1.7,0.6-2.5
			c5.7-4.7,9.1-11.4,14.7-16.3C374.7,539.2,381.1,534.9,387.9,531.1z M417.5,540.1c-1,7-2.1,13.8-3,20.7c-0.3,2.4-1.4,3.5-3.5,4.1
			c-2.6,0.6-5.2,1.1-7.6,2.2c-4,1.9-5.6-1.2-7.6-3.2c-0.8-0.8-0.3-1.9,0.8-3.1c5.5-5.9,11.8-11,16.6-17.6c0.8-1.1,1.7-1.9,1.9-3.3
			c0.1-0.9,0.3-2.2,1.7-1.9C418.5,538.3,417.4,539.6,417.5,540.1z M116.7,296.3c4.6-0.3,9.3-1.3,13.8-0.9c3.9,0.4,6.2,4,8.4,7.1
			c8.2,11.9,9.7,25.6,10.2,39.6c0,0.6,0,1.2,0,1.8c-0.3,5-0.7,9.9-1,14.9c-0.2,2.7-1.1,3.8-4.2,4c-9.1,0.5-17.9-0.8-25.5-5.4
			c-4.2-2.5-7.4-7-9.2-12.1c-1.2-3.5-2.9-6.9-5-9.8c-1.6-2.3-2-3.8-0.4-6.2c5.8-8.8,7.2-19.1,9.1-29.1
			C113.4,297.6,114.1,296.4,116.7,296.3z M144.4,66.1c-0.8,0.6-1.7,1-2.6,1.5c-3.3-3.1-6.8-6-9.6-9.4c-1-1.2,1.6-2.2,2.7-2.9
			c12.4-7.5,24.7-15.1,37.3-22.3c7.9-4.5,16.3-8.2,24.2-12.7c2.8-1.6,3.9-0.8,5.8,0.9c2.1,1.9,3.3,4.5,5.5,6.3
			c2.5,2.1-0.2,2.9-1.6,3.7c-10.7,5.6-21.6,10.9-32.2,16.7C163.7,53.4,153.8,59.3,144.4,66.1z M135.5,100.9c1,3,1.4,5.8-2.5,7.1
			c-3.4,1.2-6.5,3-8.3-2.4c-1.8-5.6-8.2-7.8-11.1-13.3C123.4,87.4,132.4,91,135.5,100.9z M96.8,102.3c3-2.6,6.3-3.9,10.1-3.7
			c3.8-1.1,5.7,1.7,7.5,3.8c2.2,2.5,3.4,6,5.6,8.5c1.9,2.2,0.5,3.5-0.7,4.6c-2.1,1.8-5.1,2.6-6,5.9c-0.3,0.9-1.4,0.4-2.3-0.9
			c-3.8-5.8-7.7-11.5-14.4-14.5C94.1,104.9,95.5,103.5,96.8,102.3z M118.3,138.3c1.8,1.6,4.8,1.6,5.8,4.3c-3.8,1-3.4,6.4-7.6,7.3
			c-0.4-4.3-0.8-8.5-1.2-12.5C116.9,136.8,117.6,137.6,118.3,138.3z M81.6,113.4c5.6-4,10.1-4.2,15.6,0.9
			c7.8,7.4,10.6,16.9,11.8,26.4c-0.4,5.1-1.5,9.4-4,13.2c-0.4,0.6-0.5,1.7-1.6,1.6c-1.3-0.1-1.4-1.2-1.5-2.2
			c-0.8-5.4-2.5-10.6-4.1-15.9c-2.5-8.3-8-13.6-15.6-17.3C77.8,118,77.5,116.3,81.6,113.4z M63.6,177.1c-4,0.2-5.6-1.8-5.3-5.3
			c-0.1-2.8,0.6-6.7,3-5.4c2.9,1.5,8.4-0.7,8.8,4.7C70.4,175.4,67.5,176.9,63.6,177.1z M71.2,139.3c-4.9,0.6-6-1.7-5.5-5.3
			c0.3-8.2,4.9-11.1,11.9-7.9c5,2.3,9.6,4.8,11.9,10.5c2.8,7,6.2,13.7,4.9,21.8c-0.7,4.2-4.1,5-6.9,6c-2.4,0.9-2.5-1.9-2.8-3.6
			c-1-6.3-3-12.1-6.6-17.4C76.4,141,74.1,139,71.2,139.3z M135.5,385.7c-31.9,3.6-63.8,5.6-95.7,0.2c-6.6-1.1-13.1-3.2-19.2-6
			c-11.1-5-13.8-13-12-23.6c4.3-24.5,11.6-48,21.8-70.8c8.8-19.7,19.6-38.1,30.4-56.6c5.5-9.5,11.1-18.8,16.1-28.5
			c0.9-1.9,1.8-3.1,4-2.2c4.4,1.9,8.8,0.7,13.1,0.2c-7.3-1.4-14.1-8.6-15.2-16.2c-0.5-3.4,0.8-5.7,4.1-7.1c6-2.6,11.9-5.2,16.6-10.1
			c2.8-3,6-1.8,7,2.4c0.7,2.8,1,5.8,3.5,8.3c3.6-6.2,7.2-12.2,10.7-18.4c1.5-2.5,3-4.9,5-7.1c2.3-2.5,4.5-3.8,8.2-2.6
			c4.2,1.3,5.6-0.1,3.9-3.9c-2.2-4.8,2.5-5.3,4.2-7.4c1.8-2.2,3.9-3.9,2.8-7.3c-6.7,4.6-13.5,8.4-21.4,3.7
			c-6.3-3.8-7.5-5.4-1.2-10.8c6-5,13.3-7.8,20-11.3c4.1-2.2,7.5,1.5,9.5,4.9c5.5,9.6,4.9,20.1,3.7,30.6c-1.7,14.9-9,27.7-20.1,36.9
			c-8.5,7.1-11.1,16.3-14.8,25.4c-3.4,8.5-5.9,17.4-9,26.1c-5.6,16-6.9,32.7-7.3,49.5c-0.2,11.7-1.1,23.3-5.2,34.4
			c-3.9,11.5-11.1,21.1-19.4,30.2c7.1-1.2,12.4-4.9,17-10c0.9-1,2-2.7,3.5-2.4c1.7,0.4,0.8,2.3,1,3.5c1.9,10.3,5.7,19.6,15.5,25
			c7.5,4.2,15.6,6.7,24.4,6.5c2.1,0,5.7-0.1,2.8,4.1c-1.2,1.7-1.8,3.9-2.5,5.9C140.3,384,138.3,385.4,135.5,385.7z M219.3,377.9
			c-8.8-12.9-13.3-27.4-23.2-40c1.5,13.9,5.9,25.7,12,36.9c2,3.8,4.3,7.5,6.9,10.9c1.9,2.5,1.3,2.8-1.4,3.2
			c-17.1,2.2-34.3,3.9-51.5,5.2c-5.9,0.5-11.8,0.9-18.3,1.5c9-14.6,13.4-30.3,13.9-46.9c0.5-16.8-0.6-33.4-9.8-48.3
			c-1.7-2.7-5.6-5.7-4.3-8.2c1.5-3,6.3-1.4,9.6-2c9.7-1.7,19.6-1.6,28.9,0.9c8.5,2.3,16.5,6.5,24.6,10.5c-2.3-5.2-5.5-9.6-11-11.7
			c-1.9-0.7-2.2-2.2-2.6-3.6c-0.6-1.9,1.7-2.2,2.4-2.5c15-6.2,29.6-13.1,45.6-16.5c16.8-3.5,33.3-1.5,49.9,1.4
			c4.4,0.7,1.4,3,0.8,4.1c-3.9,7-7.3,14.3-10.9,21.5c-9.7,19.5-16.4,40-22.4,60.9c-0.7,2.5-0.8,5.7-5,4.3c-1.9-0.6-1.5,1.4-1.8,2.2
			c-8,18.2-14.1,37.2-21.2,55.8c-0.5,1.3-0.1,3.7-2.1,3.3c-2.1-0.4-0.8-2.5-0.8-3.8c-1.6-31,3.3-61.9,2.9-92.9
			c-0.1-3.4-0.1-6.7-0.1-10C221.6,334.3,221.3,355.6,219.3,377.9z M201.7,541.3c7-5.5,14.7-8.9,23.7-7.4c5.7,1,11.3,2.4,17.8,2.4
			c-0.5-0.8-0.9-1.4-1.1-2c-0.6-1.8-4.5-1.4-3.5-3.7c0.9-2.2,3.4,0,5.3-0.4c9.8-2,18.3,2.9,27.2,5.6c0.7,0.2,1.2,0.6,1.2,1.3
			c-0.1,1-0.7,1.2-1.7,1.2c-10,0.8-17.5,5.5-21.9,14.8c-1,2.1-2.4,5.1-5.3,1.7c-7.7-8.8-18.2-10.1-28.9-10.8
			c-3.8-0.3-7.6,0.1-11.4,0.3c-0.9,0-2.1,0.9-2.7-0.1C199.7,543,200.7,542.1,201.7,541.3z M162.2,538.9c0.1-1,0.2-2.2,1.5-2.2
			c1.6,0.1,0.8,1.4,0.8,2.3c0,1.5,0,3,0,4.5c-0.1,0-0.3,0-0.5,0c0.4,4.1,0.7,8.3,1.1,12.4c0.1,1.3,0.6,2.9,0.1,3.9
			c-0.6,1.3-0.6,3.8-2.5,3.7c-2.2-0.1-0.9-2.4-1.2-3.6C159.6,552.9,161.6,545.9,162.2,538.9z M167.1,586.2
			c7.3-9.2,16.7-13.7,27.1-17.4c1.1-0.4,2.4-0.8,2.1-2.3c-0.3-1.6-1.7-1.3-2.8-1.3c-6.3-0.1-11.9,2.5-17.6,4.7c-2.2,0.7-4,1.8-6,2.7
			c4.1-9.3,11.4-15.2,20.5-18.5c12.3-4.5,25.1-5.1,38.1-2.8c3.6,0.6,8.1,1.8,9.1,4.8c0.6,2-4.7,2.9-7.4,3.9
			c-7,2.7-10.9,8.2-13.4,14.7c-1.2,3.2-2.4,4.5-6.4,4.7c-11.6,0.5-22.2,4-31.7,11.6c-8.6,6.9-15,15-19.5,24.8
			c-0.9,1.9-1.2,4.1-1.7,6.2c-0.2,0.8-0.2,1.8-1.3,1.8c-1.2,0-1-1-1.1-1.8C153.1,608,158.5,597,167.1,586.2z M136.3,554.7
			c-8.6-8.8-17.9-16.8-28.3-23.6c-1.9-1.2-5.2-2.5-5.9-7.1c12.9,6.8,25,13.1,37.7,21.2c-10.9-26.2-28.8-44.2-51.6-58
			c9.6,2.7,17.7,8.2,27.2,13.6c-2.7-7.5-6.5-13.1-9.7-18.8c-2.8-5.1-6.5-9.7-9.8-14.5c-0.6-0.8-1.4-2-0.4-2.6
			c0.6-0.4,1.5,0.1,2.3,1.4c3.3,5.3,8.4,9.1,12.5,13.8c8.5,10,15.2,21.1,22.3,31.9c3.4,5.1,6.2,10.4,9.1,16.3
			c-0.7-12.9,0.8-25.2,3.1-37.3c1.4,0.1,1.8,0.5,1.8,1.3c-1,26.2,2.7,52,8.9,77.3c0.7,2.7,0.4,5.3,0.6,7.9c0,0.7,0.4,1.8-0.8,2
			c-1.2,0.3-1.7-0.3-2.1-1.4C149.7,568.8,143,561.6,136.3,554.7z M45.7,633.4c2.6-1.7,5-3.8,7.8-4.9c1.8-0.7,4.1-3.9,6.5,0.2
			c0.8,1.4,3.8-2.3,6.4,0c-7.7,5.6-12.9,13.1-19.1,21.7c10.5-3.4,19.6-6.7,27.9-11.6c2.5-1.5,4.1-1.7,5.5,1.2
			c1.6,3.6,5.3,4.8,8.3,6.7c4.4,2.7,7.7,7,13.3,7.8c1,0.1,2,0.8,2.6-0.1c0.6-0.8,0.1-1.8-0.5-2.7c-3.9-4.9-4.5-11.6-8.8-16.3
			c-0.9-1-0.7-2.7,1.4-2.6c3.9,0.2,7.5-1,11.2-1.7c2.7-0.4,5.6,1.2,7.7,3.5c5.1,5.9,9.2,11.8,10.8,20.1c2,10.4-1.5,18-6.1,26.5
			c-5.2,9.4-12.7,15.5-22.2,19.1c-5.9,2.2-12.1,3.9-18.8,2.8c-7.8-1.3-15.8,0-23.4-3.1c-14.2-5.7-23.4-15.1-26.1-30.5
			C27.1,653,31.5,642.6,45.7,633.4z M14.7,713.6c5.2-5.6,10.5-11.2,15.5-16.9c0.9-1,1.7-1.2,2.3-0.5c10.7,11.6,24.4,16.6,39.7,18
			c0.6,0.1,1.2,0.4,1.8,0.6c0,0.6,0,1.1,0,1.6c-4.6-0.1-9.3-0.1-13.8,0c-14.8,0.4-29.6,0.2-44.4,0.2c-0.8,0-1.8,0.4-2.2-0.5
			C13,714.9,14,714.4,14.7,713.6z M705,745.7c0.4,2.4-1.2,3-3.4,3c-33.4-0.2-66.8-0.4-100.2-0.4c-31,0-61.9,0.3-92.9,0.4
			c-32.5,0-64.9-0.1-97.4-0.2c-33,0-65.9,0-98.9,0c-2,0-4,0.2-6,0.3c0,0-0.1,0-0.1,0c-1,1.2-2.4,0.9-3.7,0.9c-21.8,0-43.6,0-65.5,0
			c-1.3,0-2.7,0.3-3.7-0.9c-0.3,0-0.6,0-0.9,0c-1.2,0.1-2.4,0.2-3.6,0.3c-11.2,1-22.4,1.1-33.6,0.2c-1.9,0-3.8-0.2-5.8-0.4
			c-21.6-0.3-43.2-1.2-64.8,0.5c-0.4,0-0.9-0.3-1.3-0.5c0,0-0.1,0-0.1,0c-0.9,1-2.1,0.8-3.3,0.8c-17.7,0-35.3,0-53,0
			c-1.2,0-2.6,0.4-3.6-0.9c-16.3-0.1-32.6-0.1-48.9-0.2c-1.7,0-4.9,1.5-4.2-2.6c0.4-2.5-1.3-5.8,4.1-5.7c15.3,0.2,30.6-2.7,46.2-0.5
			c-4.6-3.4-10-4.2-15.3-4.8c-10.3-1.2-20.5,0.5-30.8,1.1c-3.1,0.2-4.6,0.1-4.1-3.6c0.3-2.3,0.1-4.6,0.1-7.2c231.6,0,463,0,694.5,0
			C705.6,732.1,703.8,738.9,705,745.7z M682.2,695.6c5,6.5,11.5,11.8,17.3,17.6c0.8,0.8,1.5,1.7,3.3,3.8c-6.3,0-11.3,0-16.2,0
			c-0.2,0-0.5,0-0.7,0c-0.6,0.3-1.3,0.8-2,0.8c-13.8,0-27.7-0.1-41.6-0.3c-0.4,0.1-0.8-0.4-1.2-0.7c-0.3,0-0.7,0-1,0
			c-1.1,1.4-2.6,0.9-4.1,0.9c-23.4,0-46.7,0-70.1,0c-1.2,0-2.5,0.3-3.5-0.7c-0.1,0-0.2-0.1-0.3-0.1c-10-0.6-20-0.4-30,0
			c0,0-0.1,0-0.1,0c-1,1.1-2.3,0.8-3.6,0.8c-31.8,0-63.7,0-95.5,0c-1.3,0-2.7,0.4-3.7-0.8c0,0,0,0,0,0c-23-0.6-46-0.4-69-0.1
			c0,0,0,0,0,0c0,0,0,0,0,0c-1.6,1.7-3.8,0.9-5.7,0.9c-27.3,0-54.5,0-81.8,0c-25.4,0-50.8,0.1-76.2,0c-2.4,0-5,0.8-7.1-0.8
			c0,0-0.1,0-0.1,0c-0.3,0-0.7,0-1-0.1c-0.2,0.1-0.3,0.1-0.4,0.2c-1.1,0.9-2.5,0.7-3.9,0.7c-19.9,0-39.7,0-59.6,0
			c-1,0-2.1,0.2-3-0.7c-8.1-0.4-16.2-1.2-24.4-1c2.5-2.3,5.6-1.9,8.5-2.3c12.5-1.7,24.9-4,36.9-8.1c2.3-0.8,4.7-1.9,6.7-3.2
			c3.2-2.1,2.8-4.9-0.4-6.9c-5.1-3.1-10.8-4.4-16.5-5.2c-4.8-0.6-4.2-2.6-2.5-5.5c2.8-4.7,4.7-9.6,6.2-14.8
			c1.1-3.9,1.8-7.7,0.8-11.5c6.5,0,12.8-0.2,19.1,0.1c2.4,0.1,2.9,2.9,4.1,4.6c4.1,5.8,8.4,11.5,15.2,14.6c1,0.4,1.5,1.3,1.2,2.5
			c-9.2,0.2-18.3,0.5-27.6,5.1c8,3.9,15.6,6.2,23.4,7.5c18.3,3.2,36.9,4.4,55.4,6.1c1.3,0.1,3.4-0.1,3.3,1.4c-0.1,2.2-2.3,1.6-3.5,1
			c-3.1-1.6-5.3,0.8-7.2,2c-2.2,1.5,0.4,2.5,1.5,2.7c4.4,0.9,8.7,2.1,13.2,2.3c17.2,0.8,34.5,1.1,51.6-2.3c8.6-1.7,17.4-0.5,26,1.6
			c11.2,2.7,22.6,4.1,33.9,0.3c5.1-1.7,9.8,0.8,14.7,1.2c9,0.8,17.3-0.1,25-5.5c3.1-2.2,7.7-1.2,11.6-1.5c11.1-0.8,22.1-2,32.3-6.8
			c1.3-0.6,3.6-0.9,3.2-3.2c-0.4-1.8-2.2-2.3-3.7-2.7c-1.7-0.5-3.7-0.4-5.3-1.2c-1.4-0.6-4,1.6-4.2-2.4c-0.1-2.8-0.4-4.2,2.6-5.9
			c10.8-6.4,21.4-13.2,34.8-12.4c-15-2.9-30.1-3.1-45.2-4.4c-0.8-0.1-2,1.1-2.4-0.6c-0.4-1.4,1-1.3,1.6-1.9c7.4-6.4,15.9-6.5,25.1-6
			c14.8,0.8,29.6,0.5,44.4-0.3c1.1-0.1,2.6-0.9,3.2,0.3c1,1.8-1.2,1.9-1.9,2.9c-6.3,8.6-12.7,17.2-18.2,26.4
			c-2.1,3.6-4.6,7.1-6.1,11c-3.3,8.8,0.9,15.1,10.3,14.8c30-0.9,59.5-4.9,87.9-14.9c5.3-1.8,9.7-4.8,13.5-8.9c2.6-2.8,1.9-5.8,0-8.5
			c-1.7-2.3-4.1-3.7-6.8-4.6c-5.9-2-5-2.3-1.8-7.8c4.5-7.8,10.6-8.1,18.1-7.6c7.8,0.5,15.6,0.1,24.4,0.1c-2.4,4.9-6.4,7.7-9.4,11
			c-11.3,12.4-1.9,27.4,6.8,33.2c11.3,7.6,22.5,6.8,33.8,0.8c11.3-5.9,24-6.9,35.8-10.8C675.5,690.1,678.7,691,682.2,695.6z
			 M606.3,674c7.2,0.4,16.7,9.6,17.4,16.8c0.3,2.7-4.9,5.9-9.4,5.9c-8,0.2-15.9-8.7-17.5-15.1C595.9,677.9,601.4,673.7,606.3,674z
			 M681.2,650.1c-13.2,4.9-25.7,11.1-35.4,21.9c-2.2,2.4-2.2,2.3-6.3-2.9c0,8-6.1,11.7-9.9,16.9c-1.1,1.5-1.9,3.9-3-0.7
			c-2.2-9.3-11.8-16-21.4-16.5c4.7-6.7,10.5-12.3,13.6-19.8c4.4-10.9,7.8-21.9,6.8-33.9c-0.2-2.6-0.2-4.8,3.5-4.1
			c0.6,0.1,1.3-0.1,2-0.3c6.1-1.2,6-1.2,6.1,5.4c0.1,7.5-1.1,14.9-2.2,22.3c-0.5,1.2,0,2.5-0.3,3.8c1-0.8,2.3-1.4,3.2-2.5
			c3-4.7,5.9-9.4,8.9-14.1c0.5-0.8,1.3-1.6,1.5-2.5c1.2-6.7,4.3-4.5,7.3-1.5c2.4,2.3,5.2,3.2,9,3c-5.6,9-11,17.7-17,27.4
			c10.4-4.5,18.8-9.6,26.9-15.2c0.4-0.3,0.6-0.8,1-1.1c5-3.3,5.1-3.3,6.8,2.5c0.4,1.4,0.8,2.9,1.6,4.2
			C687.1,648.1,687.1,647.9,681.2,650.1z M694.8,608.8c-2.5-1.9-1.9-4.8-3-7.1c-1.6-3.3-2.9-7-6.9-8.1c-1.2-0.4-2.3-0.6-1.8-2
			c0.5-1.5,1.9-0.9,3-0.6C693.7,593.1,697.2,600.2,694.8,608.8z"/>
		<path class="st0" d="M637.9,639.7c-1.4,2-2.8,4-4.7,6.7c-0.4-3.4,0.7-5.6,1.7-7.9C635.1,641,636.9,639.3,637.9,639.7z"/>
		<path class="st0" d="M520.4,353.9c0.2-2,1.1-3.7,2.7-6.1c-0.3,3.3,0.8,5.8-0.9,8.2C522,354.9,521.7,354,520.4,353.9z"/>
		<path class="st0" d="M374.1,244c1.2-0.7,2.3-1.4,4.1-2.5c-0.5,2.8-1.6,4.2-3,5.5C374.9,245.9,374.5,245,374.1,244z"/>
		<path class="st0" d="M679.3,475.2c-0.7,5.4-5.3,7.4-8.6,9.4c-10,5.9-21.1,8.2-32.6,9.4c-12.1,1.3-23.8,1.2-35.6-2.7
			C628.6,488.4,654.7,486.6,679.3,475.2z"/>
		<path class="st0" d="M429.4,589c2.8-1.7,4.9-0.5,7.2,0.2C434.2,591.4,432,591.1,429.4,589z"/>
		<path class="st0" d="M88.2,256.4c3.9-19.9,10.8-38.6,22-55.6C105.6,220.4,98.9,239.2,88.2,256.4z"/>
		<path class="st0" d="M683,736c-12.5,3-25,4.3-37.8,4.7c-8.9,0.3-17.5-0.8-26.3-1.7c-15.6-1.4-31.1-1-46.7-0.5
			c-6.5,0.2-13.1,0-19.7-0.3c7-3.7,14.7-3.7,22.2-4.7c20-2.7,39.8,0,59.8,1.9c13.4,1.2,27,0.5,40.5,0.6C677.7,736,680.4,736,683,736
			z"/>
		<path class="st0" d="M370.1,741.6c-14.1,0.5-28.2-1.3-42.3-2.2c-16.5-1.1-32.9-0.6-49.4,0.3c-16.5,1-33,1.9-49-2.4
			c5.6,0,11.5,0.2,17.4,0c6.1-0.2,12.2-0.9,18.4-1.2c14.4-0.8,28.7-3.3,43.1-2.9c8.1,0.2,16.2,0.9,24.2,1.8
			c12.8,1.5,25.6,3.3,38.4,4.9C371.7,741,370.7,741.2,370.1,741.6z"/>
		<path class="st0" d="M516.7,737.2c-15.5,5.6-30.6,6-45.9,5c-12.4-0.8-24.6-3.8-37-4c-9.6-0.2-19.2,0.5-28.8,1.8
			c6.9-3.6,14.3-5.6,22.1-6.3c12.5-1.2,24.8,1.3,37.2,2.3c15.6,1.3,31.1,1.3,46.7,0.4C512.5,736.3,514.2,736,516.7,737.2z"/>
		<path class="st0" d="M82.7,738.2c16-1.3,31.1-1.6,46-4c17.1-2.8,34-0.8,50.9,2.1c8.5,1.4,17,2.8,25.6,2.8
			c-10.8,2.2-21.6,1.4-32.3,0.3c-15.9-1.6-31.7-1.4-47.5,0.2C111.4,741,97.4,741.7,82.7,738.2z"/>
		<path class="st0" d="M370.1,741.6c0.3-0.6,0.6-1.2,1-1.7c2.8-0.5,5.3,1,8.1,1.7C376.1,741.6,373.1,741.6,370.1,741.6z"/>
		<path class="st0" d="M189.2,705.3c-9.7,2.4-18.8,2.2-27.9,0.2C170.4,701.9,179.5,703,189.2,705.3z"/>
		<path class="st0" d="M458.8,681c-4.6,2.5-9,1-13.9,0.5C449.6,678.8,454.1,680.3,458.8,681z"/>
		<path class="st0" d="M479.9,133.3c-3.8,0.4-7,1.4-9.9,3.5c-5.6,4.2-5.8,5.9-1.3,11.1c2.8,3.2,2.7,6.8,0.5,10c-2.3,3.4-5.4,6-9.6,8
			c0.3-3.7,2.2-6.3,3.4-9c1.5-3.4,1.3-6.2-2.8-7.2c-2.5-0.6-2.9-2.1-2.5-4.5c1.2-6.8,10-15.9,16.8-17
			C478,127.6,478.7,128.1,479.9,133.3z"/>
		<path class="st0" d="M342.4,688.5c-9.1-1.4-14.7-5.7-15.8-12.5C332.1,680.4,337,684.3,342.4,688.5z"/>
		<path class="st0" d="M390.6,680.4c-4-1.3-7.8,1.2-11.7,0C382.7,677.3,386.7,678.3,390.6,680.4z"/>
		<path class="st0" d="M363.9,155.4c6.7-7.8,19.8-8,31.4-1.3C384.7,157.4,374.8,153.3,363.9,155.4z"/>
		<path class="st0" d="M324.6,152.8c-5.6,2.1-10.6,3.3-15.9,3.3c-1.9,0-3.6-0.8-3.8-2.4c-0.2-1.5,1.6-2,3-2.6
			C313.4,148.8,318.6,149.8,324.6,152.8z"/>
	</g>
	<g>
		<path class="st1" d="M44.4,840.5V804h-7.2v-8.5h7.2v-8.1c0-2.7,0.9-5,2.7-6.8c1.8-1.8,4-2.7,6.8-2.7h9v8.1h-6.8
			c-1.8,0-2.7,0.9-2.7,2.7v6.8h9.5v8.5h-9.5v36.5H44.4z"/>
		<path class="st1" d="M106,834.9c-4.2,4.3-9.6,6.5-16.2,6.5c-6.5,0-11.9-2.2-16.2-6.5c-4.2-4.3-6.3-10-6.3-16.9
			c0-7,2.1-12.6,6.3-16.9c4.2-4.3,9.6-6.5,16.2-6.5c6.5,0,11.9,2.2,16.2,6.5c4.2,4.3,6.3,10,6.3,16.9
			C112.4,825,110.3,830.6,106,834.9z M80.2,829.1c2.5,2.8,5.8,4.2,9.7,4.2s7.1-1.4,9.7-4.2c2.5-2.8,3.8-6.5,3.8-11.1
			c0-4.6-1.3-8.3-3.8-11.1c-2.6-2.8-5.8-4.2-9.7-4.2s-7.1,1.4-9.7,4.2c-2.6,2.8-3.8,6.5-3.8,11.1C76.4,822.6,77.7,826.3,80.2,829.1z
			"/>
		<path class="st1" d="M158.2,834.9c-4.2,4.3-9.6,6.5-16.2,6.5c-6.5,0-11.9-2.2-16.2-6.5c-4.2-4.3-6.3-10-6.3-16.9
			c0-7,2.1-12.6,6.3-16.9c4.2-4.3,9.6-6.5,16.2-6.5c6.5,0,11.9,2.2,16.2,6.5c4.2,4.3,6.3,10,6.3,16.9
			C164.6,825,162.5,830.6,158.2,834.9z M132.4,829.1c2.5,2.8,5.8,4.2,9.7,4.2s7.1-1.4,9.7-4.2c2.5-2.8,3.8-6.5,3.8-11.1
			c0-4.6-1.3-8.3-3.8-11.1c-2.6-2.8-5.8-4.2-9.7-4.2s-7.1,1.4-9.7,4.2c-2.6,2.8-3.8,6.5-3.8,11.1
			C128.6,822.6,129.9,826.3,132.4,829.1z"/>
		<path class="st1" d="M207.8,840.5l-0.9-5.4h-0.5c-3.2,4.2-7.8,6.3-14,6.3c-6,0-11-2.1-14.8-6.4c-3.9-4.3-5.9-9.9-5.9-17
			c0-7.1,1.9-12.7,5.9-17c3.9-4.3,8.8-6.4,14.8-6.4c2.6,0,5.1,0.5,7.2,1.4c2.2,0.9,3.6,1.7,4.3,2.3c0.7,0.6,1.5,1.5,2.4,2.6h0.5
			v-23.4h9v63H207.8z M184.5,829.1c2.5,2.8,5.6,4.2,9.3,4.2c3.7,0,6.8-1.4,9.3-4.2c2.5-2.8,3.7-6.5,3.7-11.1c0-4.6-1.2-8.2-3.7-11.1
			c-2.5-2.8-5.6-4.2-9.3-4.2c-3.7,0-6.8,1.4-9.3,4.2c-2.5,2.8-3.7,6.5-3.7,11.1C180.8,822.6,182,826.2,184.5,829.1z"/>
		<path class="st1" d="M227.9,840.5v-10.3h10.3v10.3H227.9z"/>
		<path class="st1" d="M249.1,787v-9.5h9.9v9.5H249.1z M249.5,840.5v-45h9v45H249.5z"/>
		<path class="st1" d="M269.7,840.5v-45h8.1l0.9,4.5h0.5c1-1,2.1-1.9,3.3-2.7c2.9-1.8,6.1-2.7,9.7-2.7c5.5,0,9.8,1.7,13.1,5.1
			c3.3,3.4,4.9,8,4.9,13.8v27h-9v-27c0-2.9-1-5.5-3.1-7.6c-2.1-2.1-4.6-3.2-7.7-3.2c-3.3,0-6.1,1.1-8.3,3.2
			c-2.2,2.1-3.4,4.7-3.4,7.6v27H269.7z"/>
		<path class="st1" d="M321.5,840.5v-10.3h10.3v10.3H321.5z"/>
		<path class="st1" d="M343.5,858.5v-63h8.1l0.9,5.4h0.5c1-1.1,1.8-1.9,2.4-2.6c0.7-0.6,2.1-1.4,4.3-2.3c2.2-0.9,4.6-1.4,7.2-1.4
			c6,0,10.9,2.1,14.8,6.4c3.9,4.3,5.9,9.9,5.9,17c0,7.1-2,12.8-5.9,17c-3.9,4.3-8.9,6.4-14.8,6.4c-6.2,0-10.8-2.1-14-6.3h-0.5v23.4
			H343.5z M356.2,829.1c2.5,2.8,5.6,4.2,9.3,4.2c3.7,0,6.8-1.4,9.3-4.2c2.5-2.8,3.7-6.5,3.7-11.1c0-4.6-1.2-8.2-3.7-11.1
			c-2.5-2.8-5.6-4.2-9.3-4.2c-3.7,0-6.8,1.4-9.3,4.2c-2.5,2.8-3.7,6.5-3.7,11.1C352.5,822.6,353.8,826.2,356.2,829.1z"/>
		<path class="st1" d="M397.1,840.5v-45h7.7l0.9,4h0.4c0.1-0.1,0.3-0.3,0.6-0.6c0.3-0.4,0.5-0.6,0.6-0.7c0.1-0.1,0.3-0.3,0.7-0.7
			c0.4-0.3,0.7-0.6,0.9-0.7c0.2-0.1,0.6-0.3,1-0.5c0.4-0.2,0.9-0.4,1.3-0.5c0.5-0.1,1-0.2,1.6-0.3c0.6-0.1,1.2-0.1,1.9-0.1h8.1v8.1
			h-7.2c-6.3,0-9.5,3.1-9.5,9.4v27.5H397.1z"/>
		<path class="st1" d="M465.1,834.9c-4.2,4.3-9.6,6.5-16.2,6.5c-6.5,0-11.9-2.2-16.2-6.5c-4.2-4.3-6.3-10-6.3-16.9
			c0-7,2.1-12.6,6.3-16.9c4.2-4.3,9.6-6.5,16.2-6.5c6.5,0,11.9,2.2,16.2,6.5c4.2,4.3,6.3,10,6.3,16.9
			C471.5,825,469.4,830.6,465.1,834.9z M439.3,829.1c2.5,2.8,5.8,4.2,9.7,4.2s7.1-1.4,9.7-4.2c2.5-2.8,3.8-6.5,3.8-11.1
			c0-4.6-1.3-8.3-3.8-11.1c-2.6-2.8-5.8-4.2-9.7-4.2s-7.1,1.4-9.7,4.2c-2.6,2.8-3.8,6.5-3.8,11.1
			C435.5,822.6,436.8,826.3,439.3,829.1z"/>
		<path class="st1" d="M480,843.2h9c0.2,2.2,1.4,4.1,3.5,5.7c2.1,1.6,4.8,2.4,8.2,2.4c3.6,0,6.5-1.1,8.8-3.3c2.2-2.2,3.4-5,3.4-8.4
			v-7.2h-0.5c-1,1-1.9,1.8-2.7,2.4c-0.8,0.6-2.2,1.2-4.2,1.9c-2,0.7-4.4,1-7,1c-5.7,0-10.4-2-14.2-6c-3.8-4-5.6-9.2-5.6-15.6
			c0-6.4,1.9-11.6,5.6-15.6c3.7-4,8.5-6,14.2-6c6,0,10.6,2,13.9,5.9h0.5l0.9-5h8.1v44.1c0,6-1.9,10.8-5.6,14.4
			c-3.7,3.6-8.9,5.4-15.6,5.4c-3.5,0-6.6-0.5-9.4-1.6c-2.8-1.1-4.9-2.5-6.4-4.2c-1.5-1.7-2.7-3.5-3.5-5.2
			C480.6,846.6,480.2,844.9,480,843.2z M491.2,826c2.4,2.5,5.4,3.7,9,3.7c3.7,0,6.7-1.2,9-3.7c2.4-2.5,3.6-5.7,3.6-9.8
			c0-4-1.2-7.3-3.6-9.8c-2.4-2.5-5.4-3.7-9-3.7c-3.7,0-6.7,1.2-9,3.7c-2.4,2.5-3.6,5.7-3.6,9.8C487.7,820.2,488.9,823.5,491.2,826z"
			/>
		<path class="st1" d="M533.3,840.5v-45h7.7l0.9,4h0.4c0.1-0.1,0.3-0.3,0.6-0.6c0.3-0.4,0.5-0.6,0.6-0.7c0.1-0.1,0.3-0.3,0.7-0.7
			c0.4-0.3,0.7-0.6,0.9-0.7c0.2-0.1,0.6-0.3,1-0.5c0.4-0.2,0.9-0.4,1.3-0.5c0.5-0.1,1-0.2,1.6-0.3c0.6-0.1,1.2-0.1,1.9-0.1h8.1v8.1
			h-7.2c-6.3,0-9.5,3.1-9.5,9.4v27.5H533.3z"/>
		<path class="st1" d="M596,827.5h9.4c-1.3,3.6-3.7,6.8-7.2,9.7c-3.5,2.9-7.8,4.3-13.1,4.3c-6.5,0-11.9-2.2-16.2-6.5
			c-4.2-4.3-6.3-10-6.3-16.9c0-7,2.1-12.6,6.3-16.9c4.2-4.3,9.6-6.5,16.2-6.5c6.1,0,11.2,2.1,15.4,6.3c4.1,4.2,6.2,9.4,6.2,15.8
			c0,0.5-0.1,1.6-0.3,3.2l-0.2,1.3h-34.7c0.5,3.8,1.9,6.9,4.4,9.2c2.5,2.3,5.5,3.4,9.1,3.4c2.5,0,4.8-0.6,6.7-1.8
			C593.9,830.7,595.3,829.2,596,827.5z M571.7,814.4h26.6c-0.5-3.7-1.9-6.6-4.2-8.8c-2.3-2.2-5.3-3.3-8.8-3.3c-3.7,0-6.7,1.1-9,3.3
			C574,807.7,572.5,810.7,571.7,814.4z"/>
		<path class="st1" d="M613.3,827h9c0,1.6,0.9,3.2,2.7,4.6c1.8,1.4,4.3,2.2,7.6,2.2c3.1,0,5.5-0.6,7.1-1.8c1.6-1.2,2.4-2.5,2.4-4.1
			c0-1.6-0.5-2.9-1.5-3.8c-1-0.9-2.8-1.6-5.2-2l-8.1-1.3c-8.7-1.4-13.1-5.8-13.1-13c0-3.8,1.5-6.9,4.6-9.4c3.1-2.5,7.5-3.7,13.4-3.7
			c3.1,0,5.8,0.5,8.3,1.4c2.5,1,4.4,2.2,5.9,3.7c1.4,1.5,2.5,3,3.2,4.5c0.7,1.5,1.1,3,1.1,4.3h-9c0-1.6-0.8-3-2.4-4.3
			c-1.6-1.3-4-2-7-2c-3,0-5.3,0.5-6.8,1.6c-1.5,1-2.2,2.3-2.2,3.8c0,2.7,2.2,4.5,6.8,5.4l8.1,1.4c8.7,1.4,13,5.9,13,13.5
			c0,3.8-1.6,7.1-4.7,9.6c-3.2,2.6-7.7,3.9-13.7,3.9c-3.4,0-6.4-0.5-9-1.5c-2.7-1-4.7-2.3-6.1-3.9c-1.4-1.6-2.5-3.1-3.1-4.6
			C613.7,829.8,613.3,828.4,613.3,827z"/>
		<path class="st1" d="M657.8,827h9c0,1.6,0.9,3.2,2.7,4.6c1.8,1.4,4.3,2.2,7.6,2.2c3.1,0,5.5-0.6,7.1-1.8c1.6-1.2,2.4-2.5,2.4-4.1
			c0-1.6-0.5-2.9-1.5-3.8c-1-0.9-2.8-1.6-5.2-2l-8.1-1.3c-8.7-1.4-13.1-5.8-13.1-13c0-3.8,1.5-6.9,4.6-9.4c3.1-2.5,7.5-3.7,13.4-3.7
			c3.1,0,5.8,0.5,8.3,1.4c2.5,1,4.4,2.2,5.9,3.7c1.4,1.5,2.5,3,3.2,4.5c0.7,1.5,1.1,3,1.1,4.3h-9c0-1.6-0.8-3-2.4-4.3
			c-1.6-1.3-4-2-7-2c-3,0-5.3,0.5-6.8,1.6c-1.5,1-2.2,2.3-2.2,3.8c0,2.7,2.2,4.5,6.8,5.4l8.1,1.4c8.7,1.4,13,5.9,13,13.5
			c0,3.8-1.6,7.1-4.7,9.6c-3.2,2.6-7.7,3.9-13.7,3.9c-3.4,0-6.4-0.5-9-1.5c-2.7-1-4.7-2.3-6.1-3.9c-1.4-1.6-2.5-3.1-3.1-4.6
			C658.1,829.8,657.8,828.4,657.8,827z"/>
	</g>
</g>
</svg>
